<svg xmlns="http://www.w3.org/2000/svg" viewBox="0 0 105 51">
  <path fill="#0DD2F5" d="M93.697 29.247h-3.634a.58.58 0 01-.63-.512.587.587 0 01.04-.294l2.08-6.623c.14-.444.373-.446.52 0l2.2 6.631a.578.578 0 01-.285.758.568.568 0 01-.291.049v-.009zm11.237 8.315l-9.933-24.776a1.353 1.353 0 00-1.157-.784h-3.74a1.342 1.342 0 00-1.154.785l-9.832 24.774a.536.536 0 00.53.786h5.777a1.246 1.246 0 001.103-.807l.687-2.067a1.256 1.256 0 011.103-.807h7.144a1.26 1.26 0 011.115.8l.709 2.074a1.272 1.272 0 001.116.8h5.998a.525.525 0 00.502-.23.535.535 0 00.025-.555l.007.007zM71.765 25.36a7.899 7.899 0 00-.186-1.815 6.434 6.434 0 00-1.255-3.034 6.393 6.393 0 00-2.586-2.012 7.833 7.833 0 00-3.061-.444h-2.035a.85.85 0 00-.842.847v12.6a.85.85 0 00.842.845h2.926c.94.038 1.879-.099 2.77-.403 3.324-1.448 3.435-5.974 3.435-6.567l-.008-.017zm6.582-.28a13.99 13.99 0 01-3.287 9.499 10.428 10.428 0 01-4.174 3.005c-1.858.608-3.81.872-5.762.779h-9.132a.843.843 0 01-.841-.846V12.982a.843.843 0 01.842-.847h3.52l-.01.007h5.92a16.19 16.19 0 015.017.56c3.989 1.299 6.647 5.01 7.534 9.017.27 1.092.395 2.215.37 3.34l.003.02zM49.202 37.498a.85.85 0 01-.843.846h-5.05a.843.843 0 01-.84-.846v-24.51a.85.85 0 01.84-.846h5.05a.843.843 0 01.843.847v24.509zM36.59 3.762c0-.744-.22-1.471-.63-2.09a3.747 3.747 0 00-1.68-1.385 3.727 3.727 0 00-4.08.814 3.777 3.777 0 00-.812 4.099 3.757 3.757 0 001.379 1.688 3.73 3.73 0 004.726-.468 3.77 3.77 0 001.097-2.658zm-7.083 9.227a.85.85 0 01.843-.847h5.049a.843.843 0 01.842.847v24.509a.85.85 0 01-.842.846h-5.049a.843.843 0 01-.842-.846l-.001-24.51zm-13.559-.21a1.352 1.352 0 00-1.156-.785h-3.746a1.34 1.34 0 00-1.153.785L.064 37.553a.536.536 0 00.247.741.53.53 0 00.284.045h5.777a1.247 1.247 0 001.104-.807l.686-2.067a1.256 1.256 0 011.103-.807h7.143a1.26 1.26 0 011.115.8l.709 2.074a1.27 1.27 0 001.116.8h5.998a.528.528 0 00.593-.504.535.535 0 00-.065-.28l-9.927-24.77zM12.5 21.817c.14-.444.373-.446.52 0l2.2 6.631a.575.575 0 01-.576.807H11.01a.58.58 0 01-.629-.513.586.586 0 01.04-.294l2.08-6.631zm29.597 24.821c0 .744.22 1.471.63 2.09.412.618.997 1.1 1.68 1.385a3.727 3.727 0 004.08-.816 3.766 3.766 0 00.811-4.098 3.757 3.757 0 00-1.378-1.688 3.73 3.73 0 00-4.727.468 3.76 3.76 0 00-1.096 2.66z"/>
</svg>